<svg width="60" height="60" viewBox="0 0 60 60" fill="none" xmlns="http://www.w3.org/2000/svg">
<g id="Social Icons" clip-path="url(#clip0_31_28)">
<path id="Vector" d="M58.805 15.4636C58.4658 14.1872 57.7973 13.0222 56.8664 12.0853C55.9354 11.1484 54.7747 10.4724 53.5005 10.125C48.8096 8.86365 30.0596 8.86365 30.0596 8.86365C30.0596 8.86365 11.3096 8.86365 6.61866 10.125C5.3444 10.4724 4.18372 11.1484 3.25279 12.0853C2.32186 13.0222 1.65333 14.1872 1.31412 15.4636C0.0595705 20.175 0.0595703 30 0.0595703 30C0.0595703 30 0.0595705 39.825 1.31412 44.5364C1.65333 45.8128 2.32186 46.9778 3.25279 47.9147C4.18372 48.8516 5.3444 49.5276 6.61866 49.875C11.3096 51.1364 30.0596 51.1364 30.0596 51.1364C30.0596 51.1364 48.8096 51.1364 53.5005 49.875C54.7747 49.5276 55.9354 48.8516 56.8664 47.9147C57.7973 46.9778 58.4658 45.8128 58.805 44.5364C60.0596 39.825 60.0596 30 60.0596 30C60.0596 30 60.0596 20.175 58.805 15.4636Z" fill="#FF0302"/>
<path id="Vector_2" d="M23.9232 38.9217V21.0785L39.605 30.0001L23.9232 38.9217Z" fill="#FEFEFE"/>
</g>
<defs>
<clipPath id="clip0_31_28">
<rect width="60" height="60" fill="white"/>
</clipPath>
</defs>
</svg>
