<svg width="60" height="60" viewBox="0 0 60 60" fill="none" xmlns="http://www.w3.org/2000/svg">
<g id="Facebook" clip-path="url(#clip0_31_30)">
<path id="Vector" d="M60 30C60 13.4314 46.5686 0 30 0C13.4314 0 0 13.4314 0 30C0 44.9736 10.9705 57.385 25.3125 59.6355V38.6719H17.6953V30H25.3125V23.3906C25.3125 15.8719 29.7914 11.7188 36.6439 11.7188C39.9252 11.7188 43.3594 12.3047 43.3594 12.3047V19.6875H39.5766C35.85 19.6875 34.6875 22.0002 34.6875 24.375V30H43.0078L41.6777 38.6719H34.6875V59.6355C49.0295 57.385 60 44.9736 60 30Z" fill="#1877F2"/>
<path id="Vector_2" d="M41.6777 38.6719L43.0078 30H34.6875V24.375C34.6875 22.0025 35.85 19.6875 39.5766 19.6875H43.3594V12.3047C43.3594 12.3047 39.9264 11.7188 36.6439 11.7188C29.7914 11.7188 25.3125 15.8719 25.3125 23.3906V30H17.6953V38.6719H25.3125V59.6355C28.4186 60.1215 31.5814 60.1215 34.6875 59.6355V38.6719H41.6777Z" fill="white"/>
</g>
<defs>
<clipPath id="clip0_31_30">
<rect width="60" height="60" fill="white"/>
</clipPath>
</defs>
</svg>
